<svg width="52" height="48" viewBox="0 0 52 48" fill="none" xmlns="http://www.w3.org/2000/svg">
<mask id="path-1-inside-1_159_872" fill="white">
<path fill-rule="evenodd" clip-rule="evenodd" d="M17.8266 22.2212H19.8817C20.2342 22.2212 20.5221 22.5124 20.5221 22.8701V26.3269C20.5221 26.684 20.2347 26.9758 19.8817 26.9758H17.8266C17.4742 26.9758 17.1862 26.6846 17.1862 26.3269V22.8701C17.1868 22.5124 17.4742 22.2212 17.8266 22.2212ZM47.2793 0H3.9372C1.77174 0 0 1.79521 0 3.98936V31.4357C0 33.6299 1.77174 35.4251 3.9372 35.4251H17.5602V41.7633H11.5667C9.71969 41.7633 8.20873 42.9865 8.20873 44.4814V47.2H43.0077V44.4814C43.0077 42.9865 41.4968 41.7633 39.6498 41.7633H33.6569V35.4251H47.2798C49.4453 35.4251 51.217 33.6299 51.217 31.4357V3.98993C51.217 1.79521 49.4447 0 47.2793 0ZM47.9241 28.7051H3.29232V3.88963C3.29232 3.58527 3.53783 3.33651 3.83821 3.33651H47.3782C47.6786 3.33651 47.9241 3.58584 47.9241 3.88963V28.7051ZM18.7594 12.363C18.6203 11.7715 18.3889 11.2063 18.0744 10.6887L18.5512 9.60141L17.2858 8.3192L16.2121 8.80239C15.7013 8.4837 15.1435 8.24927 14.5603 8.10826L14.1389 6.99801H12.3496L11.9281 8.10826C11.3443 8.24927 10.7871 8.4837 10.2763 8.80239L9.20265 8.3192L7.9372 9.60141L8.41407 10.6893C8.09955 11.2069 7.86818 11.7721 7.72902 12.3636L6.63385 12.7906V14.6036L7.72902 15.0306C7.86818 15.6221 8.09955 16.1873 8.41407 16.7049L7.9372 17.7922L9.20265 19.0744L10.2763 18.5912C10.7871 18.9099 11.3449 19.1444 11.9287 19.2854L12.3501 20.3956H14.1394L14.5609 19.2859C15.1447 19.1449 15.7024 18.9105 16.2132 18.5918L17.2864 19.075L18.5518 17.7928L18.0749 16.7049C18.3895 16.1873 18.6208 15.6221 18.76 15.0312L19.8557 14.6042V12.79L18.7594 12.363ZM13.2439 16.8585C11.5203 16.8585 10.1236 15.4427 10.1236 13.6968C10.1236 11.9503 11.5208 10.5351 13.2439 10.5351C14.967 10.5351 16.3643 11.9509 16.3643 13.6968C16.3643 15.4427 14.9676 16.8585 13.2439 16.8585ZM36.853 8.2401C36.3835 8.2401 36.0028 7.85434 36.0028 7.3786C36.0028 6.90286 36.3835 6.5171 36.853 6.5171L39.5072 6.50736C40.0446 6.50736 40.4435 7.00488 40.3416 7.53393L39.8291 10.1729C39.7386 10.6412 39.2911 10.9467 38.829 10.8555C38.3668 10.7644 38.0653 10.3104 38.1552 9.84215L38.1694 9.76935L33.6665 13.9204C33.4266 14.1634 33.0567 14.2471 32.7263 14.1032L26.0749 11.2052L22.0749 14.2826C21.701 14.5698 21.1681 14.4958 20.8847 14.117C20.6013 13.7381 20.6743 13.1981 21.0482 12.911L25.4453 9.52804C25.6976 9.3343 26.0223 9.30507 26.2944 9.42315L32.8966 12.2959L37.2976 8.23895L36.853 8.2401ZM32.0356 18.8239C32.7207 18.8239 33.4057 18.8239 34.0908 18.8239C34.4432 18.8239 34.7311 19.1151 34.7311 19.4728V26.3263C34.7311 26.6834 34.4437 26.9752 34.0908 26.9752H32.0356C31.6832 26.9752 31.3952 26.684 31.3952 26.3263V19.4728C31.3958 19.1151 31.6832 18.8239 32.0356 18.8239ZM39.1401 12.0856H41.1953C41.5477 12.0856 41.8356 12.3768 41.8356 12.7344V26.3263C41.8356 26.6834 41.5482 26.9752 41.1953 26.9752H39.1401C38.7877 26.9752 38.4997 26.684 38.4997 26.3263V12.7344C38.4997 12.3768 38.7877 12.0856 39.1401 12.0856ZM24.9311 16.5192H26.9862C27.3387 16.5192 27.6266 16.8103 27.6266 17.168V26.3269C27.6266 26.684 27.3392 26.9758 26.9862 26.9758H24.9311C24.5787 26.9758 24.2907 26.6846 24.2907 26.3269V17.1674C24.2913 16.8103 24.5787 16.5192 24.9311 16.5192Z"/>
</mask>
<path fill-rule="evenodd" clip-rule="evenodd" d="M17.8266 22.2212H19.8817C20.2342 22.2212 20.5221 22.5124 20.5221 22.8701V26.3269C20.5221 26.684 20.2347 26.9758 19.8817 26.9758H17.8266C17.4742 26.9758 17.1862 26.6846 17.1862 26.3269V22.8701C17.1868 22.5124 17.4742 22.2212 17.8266 22.2212ZM47.2793 0H3.9372C1.77174 0 0 1.79521 0 3.98936V31.4357C0 33.6299 1.77174 35.4251 3.9372 35.4251H17.5602V41.7633H11.5667C9.71969 41.7633 8.20873 42.9865 8.20873 44.4814V47.2H43.0077V44.4814C43.0077 42.9865 41.4968 41.7633 39.6498 41.7633H33.6569V35.4251H47.2798C49.4453 35.4251 51.217 33.6299 51.217 31.4357V3.98993C51.217 1.79521 49.4447 0 47.2793 0ZM47.9241 28.7051H3.29232V3.88963C3.29232 3.58527 3.53783 3.33651 3.83821 3.33651H47.3782C47.6786 3.33651 47.9241 3.58584 47.9241 3.88963V28.7051ZM18.7594 12.363C18.6203 11.7715 18.3889 11.2063 18.0744 10.6887L18.5512 9.60141L17.2858 8.3192L16.2121 8.80239C15.7013 8.4837 15.1435 8.24927 14.5603 8.10826L14.1389 6.99801H12.3496L11.9281 8.10826C11.3443 8.24927 10.7871 8.4837 10.2763 8.80239L9.20265 8.3192L7.9372 9.60141L8.41407 10.6893C8.09955 11.2069 7.86818 11.7721 7.72902 12.3636L6.63385 12.7906V14.6036L7.72902 15.0306C7.86818 15.6221 8.09955 16.1873 8.41407 16.7049L7.9372 17.7922L9.20265 19.0744L10.2763 18.5912C10.7871 18.9099 11.3449 19.1444 11.9287 19.2854L12.3501 20.3956H14.1394L14.5609 19.2859C15.1447 19.1449 15.7024 18.9105 16.2132 18.5918L17.2864 19.075L18.5518 17.7928L18.0749 16.7049C18.3895 16.1873 18.6208 15.6221 18.76 15.0312L19.8557 14.6042V12.79L18.7594 12.363ZM13.2439 16.8585C11.5203 16.8585 10.1236 15.4427 10.1236 13.6968C10.1236 11.9503 11.5208 10.5351 13.2439 10.5351C14.967 10.5351 16.3643 11.9509 16.3643 13.6968C16.3643 15.4427 14.9676 16.8585 13.2439 16.8585ZM36.853 8.2401C36.3835 8.2401 36.0028 7.85434 36.0028 7.3786C36.0028 6.90286 36.3835 6.5171 36.853 6.5171L39.5072 6.50736C40.0446 6.50736 40.4435 7.00488 40.3416 7.53393L39.8291 10.1729C39.7386 10.6412 39.2911 10.9467 38.829 10.8555C38.3668 10.7644 38.0653 10.3104 38.1552 9.84215L38.1694 9.76935L33.6665 13.9204C33.4266 14.1634 33.0567 14.2471 32.7263 14.1032L26.0749 11.2052L22.0749 14.2826C21.701 14.5698 21.1681 14.4958 20.8847 14.117C20.6013 13.7381 20.6743 13.1981 21.0482 12.911L25.4453 9.52804C25.6976 9.3343 26.0223 9.30507 26.2944 9.42315L32.8966 12.2959L37.2976 8.23895L36.853 8.2401ZM32.0356 18.8239C32.7207 18.8239 33.4057 18.8239 34.0908 18.8239C34.4432 18.8239 34.7311 19.1151 34.7311 19.4728V26.3263C34.7311 26.6834 34.4437 26.9752 34.0908 26.9752H32.0356C31.6832 26.9752 31.3952 26.684 31.3952 26.3263V19.4728C31.3958 19.1151 31.6832 18.8239 32.0356 18.8239ZM39.1401 12.0856H41.1953C41.5477 12.0856 41.8356 12.3768 41.8356 12.7344V26.3263C41.8356 26.6834 41.5482 26.9752 41.1953 26.9752H39.1401C38.7877 26.9752 38.4997 26.684 38.4997 26.3263V12.7344C38.4997 12.3768 38.7877 12.0856 39.1401 12.0856ZM24.9311 16.5192H26.9862C27.3387 16.5192 27.6266 16.8103 27.6266 17.168V26.3269C27.6266 26.684 27.3392 26.9758 26.9862 26.9758H24.9311C24.5787 26.9758 24.2907 26.6846 24.2907 26.3269V17.1674C24.2913 16.8103 24.5787 16.5192 24.9311 16.5192Z" stroke="#FFDA31" stroke-width="2" mask="url(#path-1-inside-1_159_872)"/>
</svg>
