<svg width="32" height="22" viewBox="0 0 32 22" fill="none" xmlns="http://www.w3.org/2000/svg">
<path d="M27.4229 0.849609C29.4782 0.8498 31.1503 2.52612 31.1504 4.58105V17.9092C31.1502 19.9642 29.4779 21.6365 27.4229 21.6367H4.57715C2.52211 21.6365 0.849844 19.9642 0.849609 17.9092V4.57715C0.8498 2.52208 2.52208 0.8498 4.57715 0.849609H27.4229ZM4.57715 2.6123C3.49379 2.6125 2.6085 3.49428 2.6084 4.58105V17.9092C2.60863 18.9924 3.49047 19.8777 4.57715 19.8779H27.4229C28.5061 19.8777 29.3914 18.9958 29.3916 17.9092V4.58105C29.3915 3.49428 28.5062 2.6125 27.4229 2.6123H4.57715Z" fill="black" stroke="black" stroke-width="0.3"/>
<path d="M4.65967 4.09283C4.96641 3.71843 5.52196 3.65847 5.89795 3.96198L15.9995 12.1212L26.0981 3.96588C26.4777 3.65874 27.0295 3.71761 27.3364 4.09674C27.6444 4.47719 27.5802 5.02884 27.2065 5.33502H27.2056L19.8872 11.2442L27.2114 17.1573C27.5921 17.4609 27.6502 18.0167 27.3481 18.3956L27.3462 18.3985C27.1711 18.6094 26.9183 18.7227 26.6606 18.7227C26.4668 18.7226 26.2724 18.6591 26.1099 18.5284H26.1089L18.4858 12.3741L16.5513 13.9376C16.3886 14.0686 16.1936 14.1329 15.9995 14.1329C15.8055 14.1328 15.6104 14.0686 15.4478 13.9376L13.5132 12.3741L5.89404 18.5284C5.73135 18.6594 5.53635 18.7227 5.34229 18.7227C5.08612 18.7227 4.83211 18.6144 4.65576 18.3975V18.3965C4.34865 18.017 4.40746 17.4652 4.78662 17.1583L12.1118 11.2442L4.79053 5.33209L4.78955 5.33112C4.4149 5.02411 4.35626 4.47298 4.65869 4.09381L4.65967 4.09283Z" fill="black" stroke="black" stroke-width="0.3"/>
</svg>
