<svg width="73" height="73" viewBox="0 0 73 73" fill="none" xmlns="http://www.w3.org/2000/svg">
<path d="M3.08594 40.3232V5.36743" stroke="#FFDA31" stroke-width="2.2" stroke-miterlimit="10" stroke-linecap="round" stroke-linejoin="round"/>
<path d="M3.08594 50.8981V45.2529" stroke="#FFDA31" stroke-width="2.2" stroke-miterlimit="10" stroke-linecap="round" stroke-linejoin="round"/>
<path d="M69.1133 50.8982V15.1143" stroke="#FFDA31" stroke-width="2.2" stroke-miterlimit="10" stroke-linecap="round" stroke-linejoin="round"/>
<path d="M69.1133 10.1845V5.36743" stroke="#FFDA31" stroke-width="2.2" stroke-miterlimit="10" stroke-linecap="round" stroke-linejoin="round"/>
<path d="M36.1016 62.564V55.1655" stroke="#FFDA31" stroke-width="2.2" stroke-miterlimit="10" stroke-linecap="round" stroke-linejoin="round"/>
<path d="M37.6074 66.2065L42.5008 71.1" stroke="#FFDA31" stroke-width="2.2" stroke-miterlimit="10" stroke-linecap="round" stroke-linejoin="round"/>
<path d="M34.5809 66.2065L29.6875 71.1" stroke="#FFDA31" stroke-width="2.2" stroke-miterlimit="10" stroke-linecap="round" stroke-linejoin="round"/>
<path d="M36.1067 66.8335C37.2854 66.8335 38.2408 65.878 38.2408 64.6993C38.2408 63.5207 37.2854 62.5652 36.1067 62.5652C34.9281 62.5652 33.9727 63.5207 33.9727 64.6993C33.9727 65.878 34.9281 66.8335 36.1067 66.8335Z" stroke="#FFDA31" stroke-width="2.2" stroke-miterlimit="10" stroke-linecap="round" stroke-linejoin="round"/>
<path d="M36.1016 66.8315V71.1" stroke="#FFDA31" stroke-width="2.2" stroke-miterlimit="10" stroke-linecap="round" stroke-linejoin="round"/>
<path d="M69.9614 5.36851H2.23778C1.60919 5.36851 1.09961 4.85892 1.09961 4.23031V2.23829C1.09961 1.60969 1.60919 1.1001 2.23778 1.1001H69.9613C70.5899 1.1001 71.0994 1.60969 71.0994 2.23829V4.23017C71.0996 4.85892 70.59 5.36851 69.9614 5.36851Z" stroke="#FFDA31" stroke-width="2.2" stroke-miterlimit="10" stroke-linecap="round" stroke-linejoin="round"/>
<path d="M50.2306 55.1671H69.9616C70.5898 55.1671 71.0996 54.6573 71.0996 54.0291V52.0375C71.0996 51.4093 70.5898 50.8994 69.9616 50.8994H2.23764C1.60947 50.8994 1.09961 51.4093 1.09961 52.0375V54.0291C1.09961 54.6573 1.60947 55.1671 2.23764 55.1671H45.301" stroke="#FFDA31" stroke-width="2.2" stroke-miterlimit="10" stroke-linecap="round" stroke-linejoin="round"/>
<path d="M13.0447 42.7898C14.6162 42.7898 15.8902 41.5158 15.8902 39.9442C15.8902 38.3726 14.6162 37.0986 13.0447 37.0986C11.4732 37.0986 10.1992 38.3726 10.1992 39.9442C10.1992 41.5158 11.4732 42.7898 13.0447 42.7898Z" stroke="#FFDA31" stroke-width="2.2" stroke-miterlimit="10" stroke-linecap="round" stroke-linejoin="round"/>
<path d="M53.449 26.8535C55.0205 26.8535 56.2945 25.5795 56.2945 24.0079C56.2945 22.4364 55.0205 21.1624 53.449 21.1624C51.8775 21.1624 50.6035 22.4364 50.6035 24.0079C50.6035 25.5795 51.8775 26.8535 53.449 26.8535Z" stroke="#FFDA31" stroke-width="2.2" stroke-miterlimit="10" stroke-linecap="round" stroke-linejoin="round"/>
<path d="M53.4609 21.1629V13.4797" stroke="#FFDA31" stroke-width="2.2" stroke-miterlimit="10" stroke-linecap="round" stroke-linejoin="round"/>
<path d="M61.9976 18.0327H53.4609V13.4797H61.9976L60.5747 15.7563L61.9976 18.0327Z" stroke="#FFDA31" stroke-width="2.2" stroke-miterlimit="10" stroke-linecap="round" stroke-linejoin="round"/>
<path d="M20.168 39.9436H33.2574V24.0083H46.3469" stroke="#FFDA31" stroke-width="2.2" stroke-miterlimit="10" stroke-linecap="round" stroke-linejoin="round"/>
<path d="M44.0781 21.7295L46.3546 24.0059L44.0781 26.2824" stroke="#FFDA31" stroke-width="2.2" stroke-miterlimit="10" stroke-linecap="round" stroke-linejoin="round"/>
<path d="M30.9766 31.9759L33.253 29.6995L35.5294 31.9759" stroke="#FFDA31" stroke-width="2.2" stroke-miterlimit="10" stroke-linecap="round" stroke-linejoin="round"/>
<path d="M23.5781 37.6653L25.8545 39.9417L23.5781 42.2182" stroke="#FFDA31" stroke-width="2.2" stroke-miterlimit="10" stroke-linecap="round" stroke-linejoin="round"/>
<path d="M10.1992 30.5535H14.7522" stroke="#FFDA31" stroke-width="2.2" stroke-miterlimit="10" stroke-linecap="round" stroke-linejoin="round"/>
<path d="M13.3294 22.0166H10.1992" stroke="#FFDA31" stroke-width="2.2" stroke-miterlimit="10" stroke-linecap="round" stroke-linejoin="round"/>
<path d="M27.5752 22.0166H17.9004" stroke="#FFDA31" stroke-width="2.2" stroke-miterlimit="10" stroke-linecap="round" stroke-linejoin="round"/>
<path d="M27.5519 26.2832H24.4219" stroke="#FFDA31" stroke-width="2.2" stroke-miterlimit="10" stroke-linecap="round" stroke-linejoin="round"/>
<path d="M19.874 26.2832H10.1992" stroke="#FFDA31" stroke-width="2.2" stroke-miterlimit="10" stroke-linecap="round" stroke-linejoin="round"/>
<path d="M25.8495 16.6101V14.6182C25.8495 13.9896 25.3399 13.48 24.7113 13.48H11.3374C10.7088 13.48 10.1992 13.9896 10.1992 14.6182V16.6101C10.1992 17.2387 10.7088 17.7483 11.3374 17.7483H24.7113C25.3399 17.7483 25.8495 17.2387 25.8495 16.6101Z" stroke="#FFDA31" stroke-width="2.2" stroke-miterlimit="10" stroke-linecap="round" stroke-linejoin="round"/>
<path d="M44.6426 42.7898H49.1954" stroke="#FFDA31" stroke-width="2.2" stroke-miterlimit="10" stroke-linecap="round" stroke-linejoin="round"/>
<path d="M47.7726 34.2532H44.6426" stroke="#FFDA31" stroke-width="2.2" stroke-miterlimit="10" stroke-linecap="round" stroke-linejoin="round"/>
<path d="M61.9892 34.2529H52.3145" stroke="#FFDA31" stroke-width="2.2" stroke-miterlimit="10" stroke-linecap="round" stroke-linejoin="round"/>
<path d="M61.9954 38.519H58.8652" stroke="#FFDA31" stroke-width="2.2" stroke-miterlimit="10" stroke-linecap="round" stroke-linejoin="round"/>
<path d="M54.3174 38.519H44.6426" stroke="#FFDA31" stroke-width="2.2" stroke-miterlimit="10" stroke-linecap="round" stroke-linejoin="round"/>
</svg>
