<svg width="70" height="70" viewBox="0 0 70 70" fill="none" xmlns="http://www.w3.org/2000/svg">
<path d="M35 28.5605C32.4527 28.6488 30.0392 29.7227 28.2684 31.5559C26.4976 33.3892 25.5078 35.8384 25.5078 38.3872C25.5078 40.936 26.4976 43.3852 28.2684 45.2185C30.0392 47.0517 32.4527 48.1256 35 48.2139C37.5473 48.1256 39.9608 47.0517 41.7316 45.2185C43.5024 43.3852 44.4921 40.936 44.4921 38.3872C44.4921 35.8384 43.5024 33.3892 41.7316 31.5559C39.9608 29.7227 37.5473 28.6488 35 28.5605ZM35 45.9558C33.4885 46.0242 31.9911 45.6384 30.7008 44.8482C29.4105 44.058 28.3864 42.8996 27.7603 41.5221C27.1342 40.1447 26.9349 38.6114 27.1881 37.1196C27.4412 35.6279 28.1352 34.2462 29.1806 33.1524C30.2261 32.0586 31.5751 31.3029 33.0538 30.9826C34.5326 30.6623 36.0733 30.7921 37.4777 31.3553C38.882 31.9185 40.0855 32.8892 40.9332 34.1425C41.7809 35.3958 42.2339 36.8742 42.2339 38.3872C42.2751 40.3492 41.5368 42.2476 40.1809 43.6663C38.8249 45.0849 36.9619 45.9083 35 45.9558Z" fill="#FFDA31"/>
<path d="M39.3904 36.2678L37.107 35.9359L36.0849 33.8663C35.981 33.6903 35.833 33.5444 35.6554 33.4431C35.4779 33.3418 35.277 33.2885 35.0726 33.2886C34.8682 33.2886 34.6673 33.342 34.4898 33.4434C34.3124 33.5448 34.1644 33.6908 34.0606 33.8669L33.0396 35.9359L30.7562 36.2678C30.5476 36.2981 30.3517 36.3861 30.1906 36.5219C30.0295 36.6577 29.9096 36.8358 29.8444 37.0362C29.7793 37.2366 29.7715 37.4512 29.8219 37.6558C29.8724 37.8604 29.979 38.0468 30.1299 38.1939L31.7827 39.8042L31.3924 42.0789C31.3569 42.2865 31.3801 42.4999 31.4596 42.6951C31.539 42.8902 31.6714 43.0592 31.8418 43.183C32.0123 43.3068 32.2139 43.3805 32.424 43.3957C32.6341 43.4109 32.8443 43.3671 33.0308 43.2691L35.0728 42.1952L37.1169 43.2691C37.3034 43.3671 37.5135 43.411 37.7236 43.3958C37.9336 43.3805 38.1353 43.3069 38.3056 43.183C38.476 43.0592 38.6083 42.8901 38.6876 42.695C38.7669 42.4999 38.79 42.2864 38.7543 42.0789L38.3639 39.8043L40.0167 38.194C40.1675 38.0468 40.2742 37.8604 40.3247 37.6559C40.3751 37.4513 40.3673 37.2366 40.3022 37.0363C40.237 36.8359 40.1171 36.6577 39.956 36.5219C39.7949 36.3861 39.599 36.2981 39.3904 36.2678ZM36.3627 38.6014C36.2318 38.7293 36.1339 38.8871 36.0775 39.0612C36.021 39.2353 36.0077 39.4205 36.0386 39.6009L36.1422 40.2062L35.5976 39.9201C35.4355 39.835 35.2552 39.7905 35.0722 39.7905C34.8891 39.7905 34.7089 39.835 34.5468 39.9201L34.0043 40.2056L34.108 39.6009C34.1389 39.4205 34.1256 39.2353 34.0691 39.0612C34.0126 38.8871 33.9147 38.7293 33.7838 38.6014L33.3439 38.1736L33.9514 38.0854C34.1326 38.0591 34.3047 37.9891 34.4529 37.8815C34.601 37.7738 34.7206 37.6317 34.8015 37.4674L35.0727 36.9178L35.3451 37.4679C35.426 37.6321 35.5458 37.7741 35.6939 37.8817C35.8419 37.9892 36.014 38.0591 36.1951 38.0854L36.8027 38.1736L36.3627 38.6014Z" fill="#FFDA31"/>
<path d="M49.4082 34.4904H48.1689C48.0487 34.4904 47.9693 34.3763 47.9385 34.2781C47.7038 33.5437 47.4077 32.8304 47.0531 32.1458C47.0225 32.0984 47.0073 32.0427 47.0097 31.9863C47.0121 31.9299 47.0319 31.8757 47.0663 31.831L47.9473 30.95C48.1331 30.7643 48.2483 30.5196 48.2731 30.2581C48.2979 29.9966 48.2306 29.7346 48.0829 29.5173C46.9582 27.8583 45.5281 26.4284 43.8689 25.3038C43.6516 25.1566 43.3898 25.0896 43.1284 25.1143C42.8671 25.1391 42.6225 25.254 42.4366 25.4395L41.5557 26.3204C41.5112 26.355 41.4571 26.375 41.4009 26.3775C41.3446 26.3801 41.2889 26.3652 41.2415 26.3347C40.5569 25.979 39.8431 25.6824 39.108 25.4482C39.011 25.4173 38.8963 25.3379 38.8963 25.2172V23.9785C38.8963 23.7158 38.8047 23.4613 38.6372 23.2588C38.4698 23.0564 38.237 22.9186 37.979 22.8693C36.0114 22.4856 33.9882 22.4856 32.0207 22.8693C31.7626 22.9186 31.5298 23.0564 31.3624 23.2588C31.195 23.4613 31.1033 23.7158 31.1033 23.9785V25.2172C31.1033 25.338 30.9887 25.4174 30.8916 25.4482C30.1562 25.6826 29.4421 25.9791 28.7571 26.3347C28.7099 26.3654 28.6544 26.3805 28.5982 26.3779C28.542 26.3753 28.4881 26.3552 28.4439 26.3204L27.563 25.4394C27.3774 25.2536 27.1327 25.1384 26.8713 25.1136C26.6098 25.0889 26.3479 25.1561 26.1307 25.3038C24.4716 26.4283 23.0415 27.8582 21.9167 29.5172C21.769 29.7345 21.7017 29.9965 21.7265 30.258C21.7513 30.5196 21.8665 30.7643 22.0523 30.95L22.9333 31.8315C22.9678 31.8762 22.9876 31.9304 22.9899 31.9868C22.9923 32.0432 22.9771 32.0989 22.9465 32.1463C22.5919 32.8307 22.2957 33.5439 22.0611 34.2782C22.0302 34.3763 21.9508 34.4904 21.8307 34.4904H20.5914C20.3286 34.4904 20.074 34.582 19.8715 34.7496C19.669 34.9172 19.5314 35.1501 19.4822 35.4083C19.0971 37.3754 19.0971 39.3984 19.4822 41.3655C19.5314 41.6237 19.669 41.8567 19.8715 42.0242C20.074 42.1918 20.3286 42.2834 20.5914 42.2834H21.8307C21.9509 42.2834 22.0303 42.3975 22.0611 42.4957C22.2958 43.2301 22.592 43.9434 22.9465 44.628C22.9771 44.6754 22.9923 44.7312 22.9899 44.7875C22.9876 44.8439 22.9678 44.8982 22.9333 44.9428L22.0523 45.8238C21.8665 46.0095 21.7513 46.2542 21.7265 46.5157C21.7017 46.7773 21.769 47.0393 21.9167 47.2566C23.0415 48.9156 24.4716 50.3455 26.1307 51.47C26.3478 51.6181 26.6098 51.6857 26.8713 51.6609C27.1329 51.6361 27.3776 51.5206 27.563 51.3344L28.4439 50.4535C28.4885 50.4192 28.5426 50.3995 28.5988 50.3969C28.655 50.3944 28.7106 50.4091 28.7582 50.4391C29.4428 50.7949 30.1565 51.0914 30.8916 51.3256C30.9887 51.3565 31.1033 51.4359 31.1033 51.5566V52.7953C31.1033 53.0581 31.195 53.3125 31.3624 53.515C31.5298 53.7175 31.7626 53.8552 32.0207 53.9045C33.9881 54.2897 36.0115 54.2897 37.979 53.9045C38.237 53.8552 38.4698 53.7175 38.6372 53.515C38.8047 53.3125 38.8963 53.0581 38.8963 52.7953V51.5565C38.8963 51.4358 39.011 51.3564 39.108 51.3256C39.8434 51.0912 40.5575 50.7946 41.2426 50.4391C41.2898 50.4086 41.3453 50.3935 41.4014 50.3961C41.4576 50.3987 41.5115 50.4187 41.5557 50.4534L42.4366 51.3344C42.6223 51.5202 42.8669 51.6354 43.1283 51.6601C43.3898 51.6849 43.6517 51.6176 43.8689 51.47C45.5281 50.3455 46.9582 48.9156 48.0829 47.2566C48.2306 47.0393 48.2979 46.7773 48.2731 46.5158C48.2483 46.2542 48.1331 46.0095 47.9473 45.8238L47.0663 44.9423C47.0318 44.8977 47.0121 44.8434 47.0097 44.787C47.0073 44.7307 47.0225 44.6749 47.0531 44.6275C47.4078 43.9431 47.704 43.2299 47.9385 42.4956C47.9694 42.3975 48.0488 42.2834 48.169 42.2834H49.4083C49.6711 42.2834 49.9257 42.1917 50.1282 42.0242C50.3306 41.8566 50.4683 41.6236 50.5174 41.3655C50.9026 39.3984 50.9026 37.3753 50.5174 35.4083C50.4683 35.1501 50.3306 34.9171 50.1281 34.7496C49.9256 34.582 49.671 34.4904 49.4082 34.4904ZM48.4435 40.0253H48.1689C47.6334 40.0304 47.1134 40.2063 46.6849 40.5275C46.2563 40.8487 45.9415 41.2983 45.7863 41.8109C45.5914 42.4229 45.3446 43.0172 45.0486 43.5872C44.7946 44.0598 44.6985 44.6012 44.7743 45.1324C44.85 45.6636 45.0938 46.1566 45.4698 46.5393L45.6682 46.7378C44.9924 47.6011 44.2142 48.3792 43.3506 49.0548L43.1522 48.8569C42.7694 48.4812 42.2765 48.2377 41.7455 48.1619C41.2145 48.0861 40.6732 48.1821 40.2006 48.4358C39.6307 48.7319 39.0364 48.9787 38.4243 49.1734C37.9116 49.3286 37.4618 49.6435 37.1406 50.0722C36.8193 50.5008 36.6433 51.0209 36.6382 51.5566V51.8311C35.5503 51.9701 34.4492 51.9701 33.3614 51.8311V51.5566C33.3563 51.0209 33.1803 50.5008 32.859 50.0722C32.5377 49.6435 32.088 49.3286 31.5752 49.1734C30.9635 48.9789 30.3696 48.7321 29.8001 48.4358C29.3274 48.1817 28.7858 48.0856 28.2546 48.1613C27.7233 48.2371 27.2302 48.4808 26.8474 48.8569L26.649 49.0548C25.7854 48.3792 25.0072 47.6011 24.3313 46.7378L24.5298 46.5398C24.9058 46.1571 25.1495 45.6641 25.2253 45.1329C25.301 44.6018 25.2049 44.0603 24.9509 43.5877C24.655 43.0175 24.4083 42.4231 24.2133 41.8109C24.0581 41.2983 23.7433 40.8487 23.3147 40.5275C22.8861 40.2063 22.3662 40.0304 21.8307 40.0253H21.5561C21.4165 38.9375 21.4165 37.8363 21.5561 36.7485H21.8307C22.3662 36.7434 22.8861 36.5675 23.3147 36.2463C23.7433 35.9251 24.0581 35.4755 24.2133 34.9629C24.4082 34.3509 24.6549 33.7566 24.9509 33.1866C25.2049 32.714 25.3011 32.1725 25.2253 31.6414C25.1495 31.1102 24.9058 30.6172 24.5298 30.2345L24.3313 30.036C25.0072 29.1727 25.7854 28.3946 26.649 27.719L26.8474 27.9169C27.2299 28.293 27.7229 28.5369 28.254 28.6127C28.7851 28.6884 29.3265 28.5922 29.799 28.338C30.3689 28.0419 30.9632 27.7951 31.5752 27.6004C32.088 27.4452 32.5377 27.1303 32.859 26.7016C33.1803 26.2729 33.3563 25.7529 33.3614 25.2172V24.9426C34.4492 24.8037 35.5503 24.8037 36.6382 24.9426V25.2172C36.6433 25.7529 36.8193 26.2729 37.1406 26.7016C37.4618 27.1303 37.9116 27.4452 38.4243 27.6004C39.0361 27.7949 39.63 28.0417 40.1995 28.338C40.6722 28.592 41.2137 28.6882 41.745 28.6124C42.2762 28.5367 42.7693 28.2929 43.1522 27.9169L43.3506 27.719C44.2142 28.3946 44.9924 29.1727 45.6682 30.036L45.4698 30.2339C45.0938 30.6167 44.8501 31.1097 44.7743 31.6408C44.6986 32.172 44.7947 32.7134 45.0486 33.1861C45.3446 33.7563 45.5913 34.3507 45.7863 34.9629C45.9415 35.4754 46.2563 35.925 46.6849 36.2462C47.1135 36.5674 47.6334 36.7433 48.1689 36.7485H48.4435C48.5831 37.8363 48.5831 38.9375 48.4435 40.0253Z" fill="#FFDA31"/>
<path d="M4.51557 69.9999H65.4833C65.6898 69.9999 65.8923 69.9432 66.0688 69.8361C66.2454 69.729 66.3891 69.5755 66.4845 69.3923C66.5799 69.2092 66.6232 69.0034 66.6098 68.7974C66.5964 68.5913 66.5267 68.3929 66.4084 68.2237L58.7091 57.2248V21.4515C58.7081 20.5535 58.351 19.6926 57.716 19.0576C57.081 18.4226 56.22 18.0654 55.322 18.0645H14.6769C13.7789 18.0654 12.9179 18.4226 12.2829 19.0576C11.6479 19.6926 11.2907 20.5535 11.2898 21.4515V57.2248L3.59051 68.2237C3.47219 68.3929 3.40253 68.5913 3.38911 68.7974C3.37569 69.0034 3.41902 69.2092 3.5144 69.3923C3.60977 69.5755 3.75354 69.729 3.93006 69.8361C4.10658 69.9432 4.30909 69.9999 4.51557 69.9999ZM13.5478 21.4515C13.5481 21.1522 13.6672 20.8652 13.8788 20.6535C14.0905 20.4419 14.3775 20.3228 14.6769 20.3225H55.322C55.6214 20.3228 55.9084 20.4419 56.12 20.6535C56.3317 20.8652 56.4508 21.1522 56.4511 21.4515V56.4515H13.5478V21.4515ZM13.0066 58.7096H56.9923L63.3146 67.7419H6.68433L13.0066 58.7096Z" fill="#FFDA31"/>
<path d="M35.0005 9.03226C35.8937 9.03226 36.7669 8.76739 37.5095 8.27115C38.2522 7.77492 38.831 7.06959 39.1729 6.24438C39.5147 5.41916 39.6041 4.51112 39.4299 3.63508C39.2556 2.75903 38.8255 1.95434 38.1939 1.32275C37.5623 0.691154 36.7576 0.261034 35.8816 0.0867782C35.0055 -0.0874776 34.0975 0.00195675 33.2723 0.343772C32.447 0.685587 31.7417 1.26443 31.2455 2.0071C30.7492 2.74978 30.4844 3.62293 30.4844 4.51613C30.4857 5.71349 30.9619 6.86145 31.8085 7.70811C32.6552 8.55477 33.8031 9.03098 35.0005 9.03226ZM35.0005 2.25807C35.4471 2.25807 35.8837 2.3905 36.255 2.63862C36.6264 2.88674 36.9158 3.2394 37.0867 3.65201C37.2576 4.06461 37.3023 4.51864 37.2152 4.95666C37.1281 5.39468 36.913 5.79703 36.5972 6.11282C36.2814 6.42862 35.8791 6.64368 35.441 6.73081C35.003 6.81794 34.549 6.77322 34.1364 6.60231C33.7238 6.4314 33.3711 6.14198 33.123 5.77064C32.8749 5.39931 32.7424 4.96273 32.7424 4.51613C32.7431 3.91747 32.9812 3.34352 33.4046 2.92019C33.8279 2.49687 34.4018 2.25875 35.0005 2.25807Z" fill="#FFDA31"/>
<path d="M65.4829 14.1772C64.5897 14.1772 63.7166 14.4421 62.9739 14.9384C62.2312 15.4346 61.6524 16.1399 61.3106 16.9651C60.9688 17.7903 60.8793 18.6984 61.0536 19.5744C61.2278 20.4505 61.658 21.2552 62.2895 21.8868C62.9211 22.5184 63.7258 22.9485 64.6019 23.1227C65.4779 23.297 66.386 23.2075 67.2112 22.8657C68.0364 22.5239 68.7417 21.9451 69.238 21.2024C69.7342 20.4597 69.9991 19.5866 69.9991 18.6934C69.9978 17.496 69.5216 16.3481 68.6749 15.5014C67.8282 14.6547 66.6803 14.1785 65.4829 14.1772ZM65.4829 20.9514C65.0363 20.9514 64.5998 20.819 64.2284 20.5709C63.8571 20.3228 63.5677 19.9701 63.3967 19.5575C63.2258 19.1449 63.1811 18.6909 63.2683 18.2528C63.3554 17.8148 63.5704 17.4125 63.8862 17.0967C64.202 16.7809 64.6044 16.5658 65.0424 16.4787C65.4804 16.3916 65.9344 16.4363 66.3471 16.6072C66.7597 16.7781 67.1123 17.0675 67.3604 17.4389C67.6086 17.8102 67.741 18.2468 67.741 18.6934C67.7403 19.292 67.5022 19.866 67.0789 20.2893C66.6555 20.7126 66.0816 20.9508 65.4829 20.9514Z" fill="#FFDA31"/>
<path d="M4.51613 23.2095C5.40933 23.2095 6.28248 22.9446 7.02516 22.4484C7.76783 21.9522 8.34667 21.2468 8.68849 20.4216C9.0303 19.5964 9.11974 18.6884 8.94548 17.8123C8.77123 16.9363 8.34111 16.1316 7.70951 15.5C7.07792 14.8684 6.27323 14.4383 5.39718 14.264C4.52114 14.0898 3.6131 14.1792 2.78788 14.521C1.96267 14.8628 1.25734 15.4417 0.761105 16.1844C0.264866 16.927 0 17.8002 0 18.6934C0.00127614 19.8907 0.477491 21.0387 1.32415 21.8854C2.17082 22.732 3.31877 23.2082 4.51613 23.2095ZM4.51613 16.4353C4.96273 16.4353 5.39931 16.5677 5.77064 16.8159C6.14198 17.064 6.4314 17.4166 6.60231 17.8293C6.77322 18.2419 6.81793 18.6959 6.73081 19.1339C6.64368 19.5719 6.42862 19.9743 6.11282 20.2901C5.79703 20.6059 5.39468 20.8209 4.95666 20.9081C4.51863 20.9952 4.06461 20.9505 3.652 20.7796C3.2394 20.6086 2.88674 20.3192 2.63862 19.9479C2.3905 19.5766 2.25806 19.14 2.25806 18.6934C2.25875 18.0947 2.49687 17.5208 2.92019 17.0974C3.34351 16.6741 3.91746 16.436 4.51613 16.4353Z" fill="#FFDA31"/>
<path d="M27.6457 6.17911L27.3149 3.94531C19.5903 5.08923 12.8128 7.93607 8.23047 11.961L9.72114 13.6579C13.9804 9.91628 20.3456 7.26018 27.6457 6.17911Z" fill="#FFDA31"/>
<path d="M8.65804 35.8246L10.109 34.0936C7.5118 32.0821 5.64294 29.2771 4.78692 26.1055L2.58398 26.606C3.54773 30.2597 5.68105 33.4975 8.65804 35.8246Z" fill="#FFDA31"/>
<path d="M60.0957 33.9208L61.5665 35.6342C64.4907 33.2899 66.5618 30.0481 67.4598 26.4094L65.2503 25.9419C64.4526 29.0944 62.6416 31.8977 60.0957 33.9208Z" fill="#FFDA31"/>
<path d="M61.5647 11.7831C56.9405 7.81385 50.1597 5.01883 42.4704 3.91406L42.1484 6.14897C49.4188 7.19365 55.7917 9.80344 60.0939 13.4965L61.5647 11.7831Z" fill="#FFDA31"/>
<path d="M19.1934 62.0967H54.1934V64.3547H19.1934V62.0967Z" fill="#FFDA31"/>
</svg>
